<svg id="Capa_1" data-name="Capa 1" xmlns="http://www.w3.org/2000/svg" viewBox="0 0 1200 1200"><defs><style>.cls-1{opacity:0.54;}.cls-2{fill:#ebedfc;}.cls-3{fill:#7149bc;}</style></defs><title>Marcador</title><g class="cls-1"><path class="cls-2" d="M626,69.17c-198.75,0-365.66,136.2-412.54,320.35,67.11,6.63,119.72,63.39,119.72,132.22,0,62.1-42.89,114.24-100.56,128.74C313.91,873.67,527.74,1130.83,626,1130.83c121.73,0,425.7-400.85,425.7-636S861.14,69.17,626,69.17Z"/></g><circle class="cls-3" cx="200.66" cy="521.74" r="79.45"/><path class="cls-3" d="M626.37,42.45C413.14,42.45,234,190.78,186.43,389.64a133.79,133.79,0,0,1,14.23-.78,132.4,132.4,0,0,1,39.43,6C284.6,223.09,440.9,95.88,626.37,95.88c220,0,399,179,399,399,0,98.75-62.2,248.5-162.33,390.77-99.87,141.91-196.47,218.48-236.65,218.48C551,1104.12,336,861.27,257,641.91a131.64,131.64,0,0,1-51.18,12.45c82.4,233.77,304.64,503.19,420.56,503.19,144,0,452.42-416,452.42-662.68C1078.79,245.41,875.83,42.45,626.37,42.45Z"/></svg>