<svg id="Capa_1" data-name="Capa 1" xmlns="http://www.w3.org/2000/svg" viewBox="0 0 1200 1200"><defs><style>.cls-1{fill:#b0a5d0;}.cls-2{fill:#3e3187;}.cls-3{fill:#9181b7;}.cls-4{fill:#73609f;}.cls-5{fill:#4e4391;}.cls-6{fill:#e8ebf7;}</style></defs><title>1</title><rect class="cls-1" x="-0.1" y="0.13" width="1199.87" height="1199.87"/><path class="cls-2" d="M931.1,344.19c20,32.08,16.33,71.38,19.89,108.13,7.41,76.71,50.23,150,115.84,198.39,4.63,3.41,9.92,8.45,7.54,13.43-2.92,6.14-13,4-19.23.47-35.47-20.32-58.52-54.54-75.93-89.33s-30.57-71.56-52.67-104c23.12,90,67.71,176.68,114.4,258.72,5.91,10.36,13.86,17.88,20,27,6,8.84,14.44,14.47,9.08,23.64s-31.38,17.51-41.31,12.44c1,19.21-3.55,29.19-24.6,29s-59.05-9.82-76.92-20c-1.73,24.26-36,44.69-66,54.86-9.85,3.33-24.16,3.88-27.53-5.2,3.62,8-1,17.6-8.59,22.76s-17.43,6.67-26.89,7a126.73,126.73,0,0,1-63.48-14.64L723.14,660.35l196-311Z"/><path class="cls-2" d="M208.38,728.68c6.54-1.07,12.83,3.46,16.4,8.91s5.28,11.85,8.22,17.65c9.21,18.22,29.13,28.43,47.79,37.44l68,32.83c6.51,3.14,13.35,6.36,20.62,6.2s15-4.94,15.68-12c43,26.13,96.15,29,146.75,31.13l17.32-199.62-124.63-132-88.79-49.36L191.72,704Z"/><ellipse class="cls-3" cx="432.7" cy="520.31" rx="93.64" ry="88.71"/><path class="cls-3" d="M322.18,1081.09c69-23.08,121.45-85,151-154.3s39.11-145.94,45.63-221.53L738,748.61c-9.19,68.18-18.39,137.39-9.7,205.64s37.69,136.63,91.19,176.61"/><path class="cls-4" d="M725.55,866.55c1.9-39.4,7.17-78.84,12.44-117.94L518.81,705.26q-.6,7-1.24,14C544.7,767.84,611.24,860.87,725.55,866.55Z"/><path class="cls-3" d="M815,747.14C883.29,696.33,896.68,640,899.5,576.63S917.8,305,893.87,267.29s-92.94-92-235.16-89c0,0-102.8-1.5-154.9,39.24S450.3,418.19,450.3,418.19C450.3,594.74,467.2,634,467.2,634s43.65,98.08,135.18,134.3S764.32,784.87,815,747.14Z"/><path class="cls-5" d="M444.58,897.69c8.21-6.55-12.77-26.56-9.19-48.78,0,0,12,32.69,30.9,34s-3.45-81.45,14.6-147.36,1.57-207.16,12.56-270.73,8.87-133.4,47.2-133.4H658.23s1-32.63,13.77-43.55c0,0,4.25,49.73,46.1,51s62.47,3,53.37-24.26-21.83-60-21.83-60S766,261.15,786,326.66c0,0,6.67,18.8,30.93,20s39.43,13.95,46.7,17.59,24.26,9.1,23.66-17.59-10.31-55.8-34-83.09c0,0-6.06-12.13-3.64-18.2s54,44.88,53.38,83.7-6.59,42.5-6.59,42.5,42.69,17.88,44.18-64.69S790.32,140.26,598.82,129.1s-289.28,144.33-349.29,294-56.75,192.28-95,267.87,14.73,100.12,14.73,100.12,21.86,9.19,23.95-15.91,31.37-80.87,33.47-80.17-.37,17.17-24.07,88.79c0,0-13.54,47.89,21.48,65.08,0,0,13.48,9,19.16-20.81,0,0,64.66-263.63,88-281.14,0,0-56.94,230.66-76.65,278.11s24.79,67.16,47.14,75.7C335.2,913.53,430.72,908.75,444.58,897.69Z"/><path class="cls-6" d="M99.89,1200s83.35-199,344.48-235.46c38.37-5.36,69.29,27.39,155.46,31.3,71,3.22,106.09-25.91,143.68-17.6,263.13,58.15,356.27,221.76,356.27,221.76Z"/></svg>