<svg id="Capa_1" data-name="Capa 1" xmlns="http://www.w3.org/2000/svg" viewBox="0 0 1200 1200"><defs><style>.cls-1{fill:#7464a8;}.cls-2{fill:#d8d7eb;}.cls-3{fill:#9181b7;}.cls-4{fill:#4e3c7e;}.cls-5{fill:#73609f;}.cls-6{fill:#3e3187;}</style></defs><title>2</title><rect class="cls-1" y="0.13" width="1200" height="1199.87"/><path class="cls-2" d="M841.31,620.87S808.52,779.69,709.78,779.68c-57.39,0-51.2-117.41-51.2-117.41l182.73-72.38Z"/><ellipse class="cls-3" cx="795.16" cy="549.62" rx="88.23" ry="83.59"/><path class="cls-4" d="M827.51,523.61s-39.8,35.82-51.74,53.07c0,0-4-31.84,14.59-45.11S827.51,523.61,827.51,523.61Z"/><path class="cls-3" d="M883.09,1090.1c-65-20.76-114.43-76.45-142.28-138.77S704,820.1,697.82,752.12l-206.52,39C500,852.42,508.63,914.65,500.44,976s-35.51,122.87-85.93,158.82"/><path class="cls-5" d="M503,897.16c-1.79-35.43-6.76-70.89-11.72-106.06l206.52-39c.38,4.17.77,8.36,1.17,12.54C673.43,808.39,610.73,892.05,503,897.16Z"/><path class="cls-3" d="M426.22,775.84c-64.33-44.68-77-94.2-79.6-149.93s-17.25-238.82,5.3-272S439.49,273,573.5,275.64c0,0,96.86-1.33,146,34.49S769.87,486.6,769.87,486.6c0,155.23-15.93,189.73-15.93,189.73s-41.13,86.24-127.37,118.09S474,809,426.22,775.84Z"/><path class="cls-2" d="M854.67,487.91s-2.24-38.22,11.18-84.34S884.5,264.89,745.76,181.64,462,129.77,423.12,167.7s-60.93,74.64-83.94,87.7-77.73,26.12-79,62.18c0,0,.33,17.1,13.31,29.25,0,0-18.85,84.22,40.31,75.58,0,0-3.32,92.4,27.25,102.37v-92.4s54.51,6.65,157.54-51.85,99.09-58.11,101.07-49.19-29.09,65.16,34.46,76.12S705.15,418,706,446.9s34.19,34.62,34.19,47.33-3.07,78.89,8.76,80.2,40.32-28,48.65-108.25C797.62,466.18,829.48,466,854.67,487.91Z"/><path class="cls-6" d="M1071,1200S992.44,1012.46,746.4,978.14c-36.16-5-65.29,25.81-146.49,29.49-66.85,3-100-24.41-135.37-16.58-247.93,54.79-335.69,209-335.69,209Z"/></svg>