<svg id="Capa_1" data-name="Capa 1" xmlns="http://www.w3.org/2000/svg" viewBox="0 0 1200 1200"><defs><style>.cls-1{fill:#e8ebf7;}.cls-2{fill:#3e3187;}.cls-3{fill:#9181b7;}.cls-4{fill:#4e3c7e;}.cls-5{fill:#73609f;}.cls-6{fill:#7464a8;}.cls-7{fill:#fff;}</style></defs><title>3</title><rect class="cls-1" x="0.25" y="1" width="1200.34" height="1200.34"/><path class="cls-2" d="M941.1,477.41c49.33-163.07-60.44-331.5-229.63-351.48-6.77-.8-10.61-1-10.61-1C254.15,92.39,279.64,418.83,279.64,418.83s6.92,437.89-37.15,544.66,223.71,100,223.71,100,400,54.24,430.48-40.67c15.66-48.72-11-218.45,10.13-370.71C910.69,624.16,920.93,544.09,941.1,477.41Z"/><ellipse class="cls-3" cx="419.34" cy="563.35" rx="93.68" ry="88.75"/><path class="cls-4" d="M385,535.74s42.26,38,54.94,56.34c0,0,4.22-33.81-15.5-47.89S385,535.74,385,535.74Z"/><path class="cls-3" d="M326,1083.38c69-22,121.49-81.16,151.06-147.33s39.12-139.34,45.65-211.51L742,765.93c-9.2,65.1-18.41,131.18-9.72,196.34S770,1092.73,823.48,1130.9"/><path class="cls-5" d="M729.51,878.54c1.9-37.62,7.17-75.27,12.45-112.61L522.69,724.54q-.6,6.66-1.24,13.32C548.59,784.29,615.16,873.11,729.51,878.54Z"/><path class="cls-3" d="M801.8,749.73c68.31-47.44,81.71-100,84.52-159.18S904.64,337,880.69,301.76s-93-85.93-235.25-83.11c0,0-102.84-1.41-155,36.63S437,442.63,437,442.63c0,164.82,16.91,201.45,16.91,201.45s43.67,91.56,135.23,125.37S751.09,785,801.8,749.73Z"/><path class="cls-6" d="M100.27,1201.34s83.39-199.12,344.62-235.56c38.39-5.35,69.32,27.4,155.52,31.32,71,3.22,106.13-25.92,143.74-17.61,263.22,58.17,356.4,221.85,356.4,221.85Z"/><path class="cls-7" d="M601.23,602.24A94.21,94.21,0,1,1,695.44,508,94.31,94.31,0,0,1,601.23,602.24Zm0-182.41a88.21,88.21,0,1,0,88.2,88.2A88.3,88.3,0,0,0,601.23,419.83Z"/><path class="cls-7" d="M813.46,619.41a94.21,94.21,0,1,1,94.21-94.21A94.32,94.32,0,0,1,813.46,619.41Zm0-182.42a88.21,88.21,0,1,0,88.21,88.21A88.31,88.31,0,0,0,813.46,437Z"/><rect class="cls-7" x="703.54" y="510.1" width="6" height="31.86" transform="translate(64.44 1129.03) rotate(-79.87)"/><rect class="cls-7" x="454.47" y="426.75" width="6" height="112.67" transform="translate(-156.27 739.94) rotate(-69.27)"/><path class="cls-2" d="M402.9,486.44a16.47,16.47,0,0,0,26.28,5.92c15.37-13.86,40.73-30.91,73-31.63,54.73-1.21,91.64-105.78,81.91-137.4,0,0,31.62,49.86,28,98.5l19.61,1.22s23-49.86,20.53-76.62c0,0,10.75,37.77-7.11,74,0,0,32.66-18.37,30.11-76.53,0,0,17.62,30.7,7.16,70.56,0,0-6.48,10.36,10.66,10S770.37,426,772,400.9s-5.58-49.43-5.58-49.43,23.91,15.55,23.91,45,107.63,8,116,34.68,5.79-107.86,5.79-107.86L815.51,172l-294.06,20.6L332.75,316.37Z"/></svg>