<svg id="Capa_1" data-name="Capa 1" xmlns="http://www.w3.org/2000/svg" viewBox="0 0 1200 1200"><defs><style>.cls-1{fill:#b0a5d0;}.cls-2{fill:#9181b7;}.cls-3{fill:#73609f;}.cls-4{fill:#3e3187;}.cls-5{fill:#fff;}.cls-6{fill:#e8ebf7;}.cls-7{fill:#4e3c7e;}</style></defs><title>4</title><rect class="cls-1" x="0.5" width="1199" height="1199"/><path class="cls-2" d="M282.3,1080.21c69-23.07,121.36-85,150.9-154.2s39.07-145.83,45.59-221.36l219,43.32c-9.18,68.13-18.38,137.28-9.7,205.48s37.67,136.54,91.13,176.49"/><path class="cls-3" d="M685.38,865.82c1.9-39.37,7.17-78.78,12.43-117.85l-219-43.32q-.6,7-1.24,13.94C504.66,767.18,571.15,860.14,685.38,865.82Z"/><path class="cls-4" d="M411.13,651.81c-12.37,24.63-33.65,46.23-60.53,52.34s-58.73-7.24-67.84-33.25c-6.54-18.65-.9-39.25,6.19-57.7s15.77-37.08,15.31-56.83l58.18-11.85Z"/><ellipse class="cls-2" cx="324.16" cy="472.59" rx="94.68" ry="89.7"/><path class="cls-3" d="M426,676.76l-1.49,19.64h0S507,841.59,639.45,841h0l2.93-118.72Z"/><path class="cls-2" d="M710.72,704.67c69-47.94,82.58-101.09,85.43-160.89s18.51-256.28-5.7-291.88-94-86.85-237.77-84c0,0-103.94-1.42-156.62,37S342,394.28,342,394.28C342,560.87,359,597.89,359,597.89s44.14,92.54,136.69,126.71S659.46,740.27,710.72,704.67Z"/><path class="cls-4" d="M297.58,386.27c13.35-3,48.54-3.38,52.05,23.18,5.23,39.68,42.21,233.58,67.54,303.94s88.65,161.81,270.17,128c0,0,94.27-9.85,111.16-190,0,0,8.44-66.13-9.85-88.65s-97.09-21.1-115.39,0c0,0-61.91-35.18-135.08-7,0,0-32.36,16.88-53.47-15.48s-36.59-52.06-38-70.36-9.85-111.16-7-153.37,14.07-28.15,14.07-28.15,17.51,32.37,52.07,14.07c0,0,29.55-21.1,29.55-57.69,0,0,91.46,59.1,160.41,42.22,0,0,28.14-8.45,18.29-39.4,0,0,57.64,23.7,88.6,67.32,0,0,2.08,39.64.12,98.08C800.05,494.63,795,559.3,795,559.3s58.4-37.28,96.39-83.72,46.43-63.32,83-85.83,42.21-53.47,38-68.95-16.88-26.74-42.21-28.15-7-21.1,1.4-28.14c6.64-5.53,16.75-23.22-2.43-40.1a48,48,0,0,0-37.52-11.3c-21.49,2.61-62.14,5.87-90.91-2.07-40.8-11.26-43.62-83-128.05-114,0,0-56.28-9.85-77.39-22.51s-114-4.22-159,33.77-102.72,18.29-154.79,59.1-95.32,144.1-48.89,229.94C272.59,397.36,288.54,388.29,297.58,386.27Z"/><path class="cls-5" d="M530.77,532.2a94.11,94.11,0,1,1,94.11-94.11A94.21,94.21,0,0,1,530.77,532.2Zm0-182.22a88.11,88.11,0,1,0,88.11,88.11A88.21,88.21,0,0,0,530.77,350Z"/><path class="cls-5" d="M742.77,538a94.11,94.11,0,1,1,94.11-94.11A94.21,94.21,0,0,1,742.77,538Zm0-182.22a88.11,88.11,0,1,0,88.11,88.11A88.21,88.21,0,0,0,742.77,355.78Z"/><rect class="cls-5" x="632.99" y="438.55" width="6" height="31.42" transform="translate(142.68 1060.46) rotate(-86.4)"/><rect class="cls-5" x="376.29" y="345.48" width="5.99" height="129.41" transform="translate(-138.6 619.73) rotate(-69.27)"/><path class="cls-6" d="M88.62,1199s83.29-198.9,344.23-235.29c38.35-5.35,69.24,27.37,155.35,31.28,70.91,3.22,106-25.89,143.58-17.59,262.93,58.11,356,221.6,356,221.6Z"/><path class="cls-7" d="M345.3,486.5s-38-42.22-56.29-54.88c0,0,33.77-4.22,47.84,15.48S345.3,486.5,345.3,486.5Z"/></svg>