<svg id="Capa_1" data-name="Capa 1" xmlns="http://www.w3.org/2000/svg" viewBox="0 0 1200 1200"><defs><style>.cls-1{fill:#7464a8;}.cls-2{fill:#d8d7eb;}.cls-3{fill:#9181b7;}.cls-4{fill:#4e3c7e;}.cls-5{fill:#73609f;}.cls-6{fill:#3e3187;}</style></defs><title>5</title><rect class="cls-1" x="-0.04" y="-0.52" width="1200.04" height="1200.04"/><path class="cls-2" d="M532.94,121s311.2-18.29,384.62,233c0,0,13.4,51.13,23.75,153.7s112.91,175.84,102.57,243.07-52.58,41.37-52.58,41.37,51.72,62.93,8.62,101.71-99.13,38.79-99.13,38.79S873.21,875.73,862,880.91s16.37,66.37-56.89,78.43-141.36,7.76-141.36,7.76L615.33,743,788.77,458.75,491.94,258.82Z"/><path class="cls-2" d="M574,120.66s-245.34-17.07-337.22,141.1c0,0-70.84,107.67,20.78,217.23,0,0,24.55,26.45-2.84,87.84S178.2,752,244.31,803.9c0,0,6.62,10.39,40.62,5.67,0,0-62.34,123.72,13.22,142.61s68.36-4.72,94.16-36.83c0,0,9.74,50.22,42.79,52.5s87.84-5.28,87.84-5.28l-49.55-512Z"/><path class="cls-3" d="M663.65,715.49l21.13,278.85s-9.86,88.73-122.53,88.73-107-94.36-107-94.36l-5.63-228.15Z"/><ellipse class="cls-3" cx="764.35" cy="562.96" rx="93.65" ry="88.73"/><path class="cls-4" d="M798.7,535.35s-42.25,38-54.93,56.34c0,0-4.22-33.8,15.49-47.89S798.7,535.35,798.7,535.35Z"/><path class="cls-3" d="M857.69,1082.86c-69-22-121.46-81.14-151-147.29S667.55,796.27,661,724.11L441.82,765.49c9.19,65.08,18.39,131.14,9.71,196.29s-37.7,130.43-91.21,168.59"/><path class="cls-5" d="M454.26,878.07c-1.9-37.61-7.17-75.26-12.44-112.58L661,724.11q.6,6.64,1.24,13.31C635.14,783.84,568.59,872.65,454.26,878.07Z"/><path class="cls-3" d="M382,749.29c-68.29-47.42-81.69-100-84.5-159.14s-18.31-253.5,5.63-288.71,92.95-85.91,235.19-83.09c0,0,102.81-1.41,154.92,36.61s53.52,187.31,53.52,187.31c0,164.78-16.9,201.4-16.9,201.4S686.19,735.21,594.64,769,432.69,784.5,382,749.29Z"/><path class="cls-2" d="M803.54,481.23s-17.25-9.74-35.27-5.73c0,0-5.41,39-42.08,33.23s-15.46-42.4-15.46-58.44-1.15-72.76-95.68-70.47-86-20.74-108.89-36.72-.54,36.72-34.34,38.44-103.13,6.3-103.13-4V342.58s-22.34,3.44-26.35,23.49-15.47,24.8-31.51,24.8L250.72,424.7,290,218.23l389.25-5.6L825.88,331.29Z"/><path class="cls-6" d="M1113.11,1199.52S1005.37,1000.45,744.21,964c-38.38-5.35-69.3,27.4-155.49,31.31-71,3.22-106.1-25.91-143.69-17.6-263.16,58.16-331.95,221.79-331.95,221.79Z"/></svg>