<svg id="Capa_1" data-name="Capa 1" xmlns="http://www.w3.org/2000/svg" viewBox="0 0 1200 1200"><defs><style>.cls-1{fill:#e8ebf7;}.cls-2{fill:#9181b7;}.cls-3{fill:#73609f;}.cls-4{fill:#3e3187;}.cls-5{fill:#7464a8;}.cls-6{fill:#fff;}.cls-7{fill:#4e3c7e;}</style></defs><title>6</title><rect class="cls-1" x="-1.13" y="-3.1" width="1203.1" height="1203.1"/><ellipse class="cls-2" cx="787.05" cy="491" rx="93.89" ry="88.95"/><path class="cls-2" d="M880.94,1072.44c-69.2-22.1-121.78-81.36-151.41-147.67s-39.21-139.66-45.75-212L464,754.25c9.22,65.25,18.45,131.48,9.74,196.79s-37.8,130.76-91.44,169"/><path class="cls-3" d="M476.48,867.12c-1.91-37.71-7.19-75.45-12.48-112.87l219.78-41.49q.6,6.68,1.24,13.35C657.82,772.65,591.1,861.68,476.48,867.12Z"/><path class="cls-2" d="M403.71,741.71c-68.47-47.54-81.9-100.24-84.72-159.54S300.63,328,324.64,292.72s93.18-86.13,235.79-83.3c0,0,103.07-1.42,155.31,36.71S769.4,433.91,769.4,433.91c0,165.2-16.95,201.91-16.95,201.91s-43.77,91.77-135.54,125.66S454.53,777,403.71,741.71Z"/><path class="cls-4" d="M723.48,280s-379.81,52.24-419.35,5.65,91.78-176.49,241.44-176.49,201.91,52.24,240,151.07-19.77,235.8-40.94,240-9.3-51.06-36.71-105.89C689.59,357.67,723.48,350.61,723.48,280Z"/><path class="cls-5" d="M1109.36,1200S1025.78,991.48,764,953.32c-38.48-5.61-69.48,28.69-155.88,32.79C536.92,989.49,501.69,959,464,967.67,200.17,1028.6,106.78,1200,106.78,1200Z"/><path class="cls-6" d="M483.9,473a94.43,94.43,0,1,1,94.43,94.42A94.54,94.54,0,0,1,483.9,473Zm6,0a88.41,88.41,0,1,0,88.41-88.41A88.51,88.51,0,0,0,489.92,473Z"/><path class="cls-6" d="M271.18,490.18a94.43,94.43,0,1,1,94.43,94.42A94.54,94.54,0,0,1,271.18,490.18Zm6,0a88.41,88.41,0,1,0,88.41-88.41A88.51,88.51,0,0,0,277.2,490.18Z"/><rect class="cls-6" x="456.81" y="488" width="31.93" height="6.02" transform="translate(-78.99 90.81) rotate(-10.13)"/><rect class="cls-6" x="665.41" y="441.96" width="129.85" height="6.02" transform="translate(-110.22 287.32) rotate(-20.73)"/><path class="cls-7" d="M830.8,447.14s-42.36,38.12-55.06,56.48c0,0-4.24-33.89,15.53-48S830.8,447.14,830.8,447.14Z"/></svg>